<svg width="78" height="52" viewBox="0 0 78 52" fill="none" xmlns="http://www.w3.org/2000/svg">
<path d="M62.7877 21.9923C62.6503 14.1733 56.2696 7.87737 48.4178 7.87737C46.713 7.87737 45.0777 8.17469 43.5609 8.71885C40.4468 3.49782 34.7428 0 28.2216 0C18.3645 0 10.3735 7.99074 10.3735 17.8482C10.3735 19.5188 10.6035 21.135 11.0326 22.6686C5.02331 24.5671 0.666687 30.1865 0.666687 36.8234C0.666687 45.0205 7.31163 51.6657 15.509 51.6657H62.2262C70.4227 51.6668 77.0671 45.0213 77.0671 36.8248C77.0671 28.8155 70.7234 22.2884 62.7861 21.9925L62.7877 21.9923Z" fill="#005149"/>
<path d="M38.5028 18.7714L38.3803 18.7714C38.3395 18.7714 38.2985 18.7714 38.2578 18.8124C38.217 18.8124 38.176 18.8534 38.1352 18.8534C38.0945 18.8534 38.0534 18.8944 38.0127 18.8944C37.9719 18.8944 37.9309 18.9354 37.9309 18.9354C37.8901 18.9765 37.8491 18.9764 37.8083 19.0177L37.7676 19.0177L37.7268 19.0588L37.6861 19.0998L27.7989 30.6958C27.5128 31.0658 27.4313 31.518 27.5946 31.9703C27.7989 32.3816 28.2073 32.6693 28.6568 32.6693L33.8045 32.6693L33.8048 50.4734C33.8048 51.1313 33.8048 51.6656 33.8048 51.6656L43.4874 51.6656C43.4874 51.6656 43.4874 51.131 43.4874 50.4734L43.4874 32.5871L48.6352 32.5871C49.0846 32.5871 49.4933 32.2991 49.6974 31.8881C49.7792 31.7238 49.8199 31.5591 49.8199 31.3948C49.8199 31.1068 49.7381 30.8602 49.5338 30.6135L39.5649 19.1005C39.5649 19.0594 39.5242 19.0594 39.4831 19.0181L39.4424 18.9771L39.4016 18.9771C39.3609 18.9361 39.3198 18.9361 39.2791 18.8948C39.2383 18.8948 39.2383 18.8538 39.1973 18.8538C39.1565 18.8538 39.1155 18.8128 39.0747 18.8128C39.034 18.8128 38.9929 18.7718 38.9522 18.7718C38.9114 18.7718 38.8704 18.7718 38.8296 18.7308L38.7071 18.7308L38.5846 18.7308C38.5851 18.7715 38.5436 18.7714 38.5028 18.7714Z" fill="white"/>
</svg>
